HIERARCHY
ROOT Hips
{
	OFFSET 0.000000 0.000000 0.000000
	CHANNELS 6 Xposition Yposition Zposition Xrotation Yrotation Zrotation
	JOINT LeftUpLeg_virtual
	{
		OFFSET 0.000000 0.000000 0.000000
		CHANNELS 3 Xrotation Yrotation Zrotation
		JOINT LeftUpLeg
		{
			OFFSET 15.427100 -6.655098 0.678600
			CHANNELS 3 Xrotation Yrotation Zrotation
			JOINT LeftLeg
			{
				OFFSET 4.081073 -39.591068 13.024000
				CHANNELS 3 Xrotation Yrotation Zrotation
				JOINT LeftFoot
				{
					OFFSET -4.081074 -37.707932 -15.979700
					CHANNELS 3 Xrotation Yrotation Zrotation
					JOINT LeftToeBase
					{
						OFFSET 5.346399 -15.068900 20.645000
						CHANNELS 3 Xrotation Yrotation Zrotation
						JOINT LeftToe_End
						{
							OFFSET 2.754700 0.931300 11.300900
							CHANNELS 3 Xrotation Yrotation Zrotation
							End Site
							{
								OFFSET 0 0 0
							}
						}
					}
				}
			}
		}
	}
	JOINT RightUpLeg_virtual
	{
		OFFSET 0.000000 0.000000 0.000000
		CHANNELS 3 Xrotation Yrotation Zrotation
		JOINT RightUpLeg
		{
			OFFSET -15.569500 -6.655098 0.678600
			CHANNELS 3 Xrotation Yrotation Zrotation
			JOINT RightLeg
			{
				OFFSET -4.081825 -39.591045 13.023800
				CHANNELS 3 Xrotation Yrotation Zrotation
				JOINT RightFoot
				{
					OFFSET 4.081824 -37.707954 -15.979600
					CHANNELS 3 Xrotation Yrotation Zrotation
					JOINT RightToeBase
					{
						OFFSET -5.346400 -15.068900 20.645000
						CHANNELS 3 Xrotation Yrotation Zrotation
						JOINT RightToe_End
						{
							OFFSET -2.754700 0.931300 11.300900
							CHANNELS 3 Xrotation Yrotation Zrotation
							End Site
							{
								OFFSET 0 0 0
							}
						}
					}
				}
			}
		}
	}
	JOINT Spine_virtual
	{
		OFFSET 0.000000 0.000000 0.000000
		CHANNELS 3 Xrotation Yrotation Zrotation
		JOINT Spine
		{
			OFFSET -0.279200 12.230698 -2.892100
			CHANNELS 3 Xrotation Yrotation Zrotation
			JOINT Spine1
			{
				OFFSET -0.232667 10.192268 -1.242267
				CHANNELS 3 Xrotation Yrotation Zrotation
				JOINT Spine1_split
				{
					OFFSET -0.232667 10.192268 -1.242267
					CHANNELS 3 Xrotation Yrotation Zrotation
					JOINT Spine2
					{
						OFFSET -0.232667 10.192268 -1.242267
						CHANNELS 3 Xrotation Yrotation Zrotation
						JOINT Neck_virtual
						{
							OFFSET 0.000000 0.000000 0.000000
							CHANNELS 3 Xrotation Yrotation Zrotation
							JOINT Neck
							{
								OFFSET -0.418800 17.814194 8.416900
								CHANNELS 3 Xrotation Yrotation Zrotation
								JOINT Head
								{
									OFFSET 0.000000 7.031097 3.806800
									CHANNELS 3 Xrotation Yrotation Zrotation
									JOINT HeadTop_End
									{
										OFFSET 0.000000 24.646606 12.978600
										CHANNELS 3 Xrotation Yrotation Zrotation
										End Site
										{
											OFFSET 0 0 0
										}
									}
								}
							}
						}
						JOINT LeftShoulder_virtual
						{
							OFFSET 0.000000 0.000000 0.000000
							CHANNELS 3 Xrotation Yrotation Zrotation
							JOINT LeftShoulder
							{
								OFFSET 8.476499 7.247704 -3.868750
								CHANNELS 3 Xrotation Yrotation Zrotation
								JOINT LeftShoulder_split
								{
									OFFSET 8.476499 7.247704 -3.868750
									CHANNELS 3 Xrotation Yrotation Zrotation
									JOINT LeftArm
									{
										OFFSET 9.308998 -2.777710 0.208600
										CHANNELS 3 Xrotation Yrotation Zrotation
										JOINT LeftForeArm
										{
											OFFSET 29.972298 0.000000 0.000000
											CHANNELS 3 Xrotation Yrotation Zrotation
											JOINT LeftHand
											{
												OFFSET 26.026505 0.000000 0.000000
												CHANNELS 3 Xrotation Yrotation Zrotation
												End Site
												{
													OFFSET 0 0 0
												}
											}
										}
									}
								}
							}
						}
						JOINT RightShoulder_virtual
						{
							OFFSET 0.000000 0.000000 0.000000
							CHANNELS 3 Xrotation Yrotation Zrotation
							JOINT RightShoulder
							{
								OFFSET -7.570500 7.247704 -3.868750
								CHANNELS 3 Xrotation Yrotation Zrotation
								JOINT RightShoulder_split
								{
									OFFSET -7.570500 7.247704 -3.868750
									CHANNELS 3 Xrotation Yrotation Zrotation
									JOINT RightArm
									{
										OFFSET -9.308998 -2.777710 0.208500
										CHANNELS 3 Xrotation Yrotation Zrotation
										JOINT RightForeArm
										{
											OFFSET -29.972300 0.000000 0.000000
											CHANNELS 3 Xrotation Yrotation Zrotation
											JOINT RightHand
											{
												OFFSET -26.026505 0.000000 0.000000
												CHANNELS 3 Xrotation Yrotation Zrotation
												End Site
												{
													OFFSET 0 0 0
												}
											}
										}
									}
								}
							}
						}
					}
				}
			}
		}
	}
}
MOTION
Frames: 7
Frame Time: 0.03333333
-2.142306 92.261414 -8.722702 0.000000 0.000000 0.000000 7.989263 -22.841836 3.244120 -21.131471 34.553107 17.750050 17.013749 2.995163 -2.883525 -7.527876 5.723122 -13.474336 2.574363 -6.656552 1.452483 0.000000 0.000000 0.000000 8.479805 -23.019896 3.616284 -14.129628 4.424454 -11.120749 16.601376 9.628991 5.614735 -11.607043 -3.352457 21.504956 5.137091 5.413701 -5.553908 0.000000 0.000000 0.000000 5.345747 -14.986016 0.494754 2.292632 -1.115275 -0.168758 3.441769 -1.760805 5.421870 0.103251 -0.002661 -0.174438 0.000000 0.000000 0.000000 3.549851 0.614131 6.347280 -0.653529 15.746002 -11.305254 -22.096854 -9.615914 -26.378725 0.000000 0.000000 0.000000 1.015357 -1.730204 5.092105 1.886065 -10.139484 9.090757 -2.868123 -2.451772 1.560149 -61.437681 12.990512 -47.381371 32.874243 -62.152775 30.854256 0.000000 0.000000 0.000000 1.426613 -1.581293 7.100639 3.809997 -11.842640 3.641011 -4.284833 0.792570 -3.366290 -2.530916 8.018167 66.242392 3.316581 28.239578 -0.048522 0.000000 0.000000 0.000000 
-1.875948 92.469872 -8.161591 0.000000 0.000000 0.000000 8.107256 -22.507598 3.417527 -21.231798 33.406670 17.817935 17.464922 2.763491 -2.958260 -6.576342 5.914414 -13.376546 2.569305 -6.613912 1.573483 0.000000 0.000000 0.000000 8.615331 -22.954041 3.808543 -14.011794 3.960186 -11.682154 16.440923 9.539360 5.552426 -11.410406 -3.561922 21.028725 7.003930 5.318790 -5.467224 0.000000 0.000000 0.000000 6.018167 -15.553987 0.761494 2.406647 -1.210580 0.303882 3.340257 -1.968307 5.225116 -0.030010 0.284765 -0.167598 0.000000 0.000000 0.000000 3.529397 0.382831 6.167456 0.041797 15.936962 -11.680744 -23.044648 -8.566418 -27.107224 0.000000 0.000000 0.000000 0.888546 -1.916061 4.827370 1.917431 -10.178472 8.784527 -2.398054 -3.180274 0.519049 -62.579368 13.192571 -46.944877 33.068989 -61.580303 30.287504 0.000000 0.000000 0.000000 1.422019 -1.749385 6.823481 3.313549 -11.892524 2.455394 -4.005970 -0.526908 -2.604854 -2.057500 9.058994 66.883268 3.010019 27.587472 0.031149 0.000000 0.000000 0.000000 
-1.328162 92.503235 -7.781670 0.000000 0.000000 0.000000 8.531571 -22.367244 3.824142 -21.367620 31.329624 17.547840 17.863001 2.686573 -2.909929 -5.700136 6.291192 -12.332473 2.582791 -6.568331 1.736967 0.000000 0.000000 0.000000 9.075759 -22.489608 4.080796 -14.844387 3.327521 -12.553559 16.811821 9.891157 5.398801 -10.654605 -3.473655 21.209751 7.168970 5.204794 -5.902615 0.000000 0.000000 0.000000 7.020320 -16.647254 1.409708 2.914201 -1.129003 1.617593 3.321605 -2.247525 4.440668 -0.096230 0.454455 -0.089111 0.000000 0.000000 0.000000 3.678566 0.099383 5.416968 0.965483 16.351188 -12.436280 -26.122815 -6.560030 -27.938769 0.000000 0.000000 0.000000 0.840008 -2.100445 4.029354 1.871942 -10.103243 7.916497 -1.674259 -3.658047 -0.268355 -63.366663 13.571290 -45.176196 31.878880 -62.588869 28.404004 0.000000 0.000000 0.000000 1.397344 -1.905992 5.984828 2.595673 -11.503676 -0.474879 -4.754078 -1.821929 -1.441971 -1.403685 8.849163 69.185937 2.587754 27.044928 0.083823 0.000000 0.000000 0.000000 
-0.459701 92.137497 -7.749435 0.000000 0.000000 0.000000 9.074120 -22.717392 4.364009 -21.720533 28.473378 16.975687 18.775220 2.459633 -2.809538 -5.134651 6.574888 -10.774530 2.826262 -6.525353 1.748110 0.000000 0.000000 0.000000 9.624912 -22.299897 4.440196 -16.649143 2.883974 -13.535595 17.903232 10.401392 5.142486 -10.003710 -3.277017 21.146206 6.074372 5.065974 -6.691649 0.000000 0.000000 0.000000 8.145177 -18.161372 2.324289 3.782640 -0.894689 3.412693 3.373048 -2.540204 3.264855 -0.094876 0.480838 -0.001564 0.000000 0.000000 0.000000 3.952731 -0.131168 4.219806 2.133234 16.887904 -13.355970 -30.400779 -4.227832 -28.416869 0.000000 0.000000 0.000000 0.972700 -2.256899 2.875403 1.721504 -10.026319 6.639189 -0.549075 -3.561053 -0.405833 -63.903202 14.299589 -41.731926 29.061915 -65.104871 25.086383 0.000000 0.000000 0.000000 1.411830 -2.021403 4.741980 1.859505 -10.719552 -4.510508 -5.620881 -2.616164 -0.334391 -0.220719 7.569251 72.741959 2.170411 27.169903 0.139531 0.000000 0.000000 0.000000 
0.676250 91.259209 -7.933784 0.000000 0.000000 0.000000 9.584963 -23.729708 5.026034 -22.385573 24.909877 16.134707 20.687846 1.833011 -2.659893 -5.121443 6.474437 -9.295312 3.121394 -6.479277 1.509888 0.000000 0.000000 0.000000 10.172987 -22.848786 4.944285 -19.456644 2.987929 -14.296525 19.839750 10.808878 4.805380 -9.625963 -3.061873 20.348863 5.190605 4.865649 -7.720042 0.000000 0.000000 0.000000 9.286864 -20.079860 3.417095 4.983807 -0.541586 5.243930 3.504971 -2.715742 1.931039 -0.011342 0.369234 0.092190 0.000000 0.000000 0.000000 4.290324 -0.200659 2.796482 3.428065 17.440714 -14.006644 -34.443701 -2.095764 -28.210915 0.000000 0.000000 0.000000 1.333621 -2.327667 1.592280 1.495399 -10.192466 5.354144 0.989859 -2.801817 0.391923 -64.282851 15.471331 -36.959100 23.678729 -68.392221 19.302063 0.000000 0.000000 0.000000 1.473750 -2.042393 3.328805 1.312734 -9.553471 -8.758568 -6.577484 -3.046807 0.510221 2.147984 6.058375 76.725509 1.905695 27.951716 0.208315 0.000000 0.000000 0.000000 
2.080792 89.870041 -8.165440 0.000000 0.000000 0.000000 9.987098 -25.520438 5.705703 -23.336680 20.745033 15.107292 23.821948 0.721992 -2.376146 -5.941149 5.846876 -8.361747 2.955463 -6.429524 1.047816 0.000000 0.000000 0.000000 10.605342 -24.556803 5.594759 -23.519159 3.998833 -14.583005 22.802573 11.223568 4.454622 -9.015016 -2.477835 19.352653 5.137434 4.583574 -8.939524 0.000000 0.000000 0.000000 10.455096 -22.608051 4.513404 6.438263 -0.115169 6.646884 3.664495 -2.644577 0.737540 0.082303 0.202015 0.179212 0.000000 0.000000 0.000000 4.601217 -0.040340 1.417105 4.643667 17.917615 -13.933124 -37.071787 -0.938600 -27.178800 0.000000 0.000000 0.000000 1.898286 -2.269399 0.462222 1.200261 -10.594520 4.388091 2.783086 -1.801371 1.585488 -64.748445 16.647693 -32.107848 14.499249 -71.705696 9.771940 0.000000 0.000000 0.000000 1.568814 -1.939445 2.040711 1.128210 -8.152701 -12.379971 -7.408986 -3.450246 0.967868 5.781388 5.104521 80.149640 1.794203 29.132290 0.306630 0.000000 0.000000 0.000000 
3.692621 88.121429 -8.399055 0.000000 0.000000 0.000000 10.298595 -28.152530 6.299501 -24.277808 16.009181 13.868887 27.886884 -0.800651 -1.851137 -7.718362 4.926729 -8.283140 2.057790 -6.356960 0.249045 0.000000 0.000000 0.000000 11.190414 -27.495148 6.423913 -28.623453 6.044094 -14.323478 26.321155 11.988351 4.060311 -7.531579 -1.027576 19.381504 5.384015 4.295814 -10.439469 0.000000 0.000000 0.000000 11.466739 -26.057757 5.519261 8.174422 0.343437 7.322082 3.809230 -2.257401 -0.068520 0.139871 0.010097 0.209682 0.000000 0.000000 0.000000 4.912327 0.398341 0.370961 5.536162 18.276654 -12.786480 -37.950624 -1.465789 -25.610532 0.000000 0.000000 0.000000 2.565001 -2.015719 -0.252007 0.866569 -11.142168 4.084497 4.176676 -0.923478 2.431683 -65.907323 17.134346 -28.342131 0.665795 -74.190129 -4.358084 0.000000 0.000000 0.000000 1.708917 -1.654027 1.135739 1.318248 -6.565106 -14.913599 -7.708175 -3.613384 1.108430 9.943307 5.126668 82.061465 1.753358 30.153113 0.393777 0.000000 0.000000 0.000000 
